<?xml version="1.0" standalone="no"?>
<!DOCTYPE svg PUBLIC "-//W3C//DTD SVG 20010904//EN"
 "http://www.w3.org/TR/2001/REC-SVG-20010904/DTD/svg10.dtd">
<svg version="1.0" xmlns="http://www.w3.org/2000/svg"
 width="260.000000pt" height="260.000000pt" viewBox="0 0 260.000000 260.000000"
 preserveAspectRatio="xMidYMid meet">
<metadata>
Created by potrace 1.11, written by Peter Selinger 2001-2013
</metadata>
<g transform="translate(0.000000,260.000000) scale(0.100000,-0.100000)"
fill="#000000" stroke="none">
<path d="M1849 2326 c-2 -2 -31 -6 -64 -10 -62 -6 -74 -8 -160 -26 -27 -6 -59
-12 -70 -14 -43 -9 -237 -59 -385 -101 -168 -47 -299 -81 -342 -89 -15 -2 -63
-11 -105 -20 -122 -24 -148 -26 -303 -30 -86 -2 -184 1 -240 9 -52 7 -96 12
-97 11 -1 -1 14 -11 35 -21 210 -109 901 -493 1308 -726 94 -54 189 -108 210
-120 77 -43 513 -294 730 -420 122 -71 224 -129 228 -129 3 0 6 347 6 770 l0
771 -67 30 c-176 79 -318 111 -524 116 -85 2 -157 2 -160 -1z"/>
<path d="M0 1199 l0 -770 73 -34 c69 -32 174 -69 227 -81 61 -13 78 -16 125
-24 50 -8 352 -6 390 3 11 2 43 8 70 11 39 6 226 46 280 60 6 2 24 6 40 11 17
4 93 25 170 47 77 22 147 41 155 43 8 2 60 15 115 28 227 58 391 81 570 81
133 -1 199 -5 263 -20 28 -7 52 -11 52 -9 0 6 -159 95 -170 95 -5 0 -10 5 -10
10 0 6 -4 10 -9 10 -5 0 -56 26 -113 58 -57 33 -125 71 -153 87 -62 34 -756
424 -810 455 -22 13 -58 33 -80 45 -22 12 -56 32 -75 43 -19 11 -51 30 -71 40
-20 11 -110 62 -199 112 -89 50 -179 101 -199 112 -20 10 -49 27 -66 37 -26
15 -288 164 -395 224 -19 10 -65 37 -102 58 -36 22 -69 39 -72 39 -3 0 -6
-347 -6 -771z"/>
</g>
</svg>
