<svg width="40" height="40" viewBox="0 0 40 40" fill="none" xmlns="http://www.w3.org/2000/svg">
<rect x="0.5" y="0.5" width="39" height="39" rx="3.5" stroke="#E9E9E9"/>
<path d="M13.222 27V15.786L10.846 16.524L10.504 15.372L13.582 14.31H14.626V27H13.222ZM26.7292 25.326C25.7452 26.586 24.4612 27.216 22.8772 27.216C21.2932 27.216 20.0092 26.592 19.0252 25.344C18.0532 24.084 17.5672 22.536 17.5672 20.7C17.5672 18.888 18.0592 17.352 19.0432 16.092C20.0392 14.82 21.3292 14.184 22.9132 14.184C24.4972 14.184 25.7752 14.814 26.7472 16.074C27.7192 17.322 28.2052 18.864 28.2052 20.7C28.2052 22.512 27.7132 24.054 26.7292 25.326ZM20.1232 24.39C20.8432 25.41 21.7732 25.92 22.9132 25.92C24.0532 25.92 24.9712 25.416 25.6672 24.408C26.3752 23.388 26.7292 22.152 26.7292 20.7C26.7292 19.272 26.3692 18.048 25.6492 17.028C24.9412 15.996 24.0172 15.48 22.8772 15.48C21.7372 15.48 20.8132 15.99 20.1052 17.01C19.3972 18.018 19.0432 19.248 19.0432 20.7C19.0432 22.128 19.4032 23.358 20.1232 24.39Z" fill="#262424"/>
</svg>
