<svg width="40" height="40" viewBox="0 0 40 40" fill="none" xmlns="http://www.w3.org/2000/svg">
<rect x="0.5" y="0.5" width="39" height="39" rx="3.5" stroke="#E9E9E9"/>
<path d="M14.222 26V14.786L11.846 15.524L11.504 14.372L14.582 13.31H15.626V26H14.222ZM22.9052 26.216C21.2372 26.216 19.7372 25.55 18.4052 24.218L19.3412 23.192C20.5292 24.344 21.7232 24.92 22.9232 24.92C23.8232 24.92 24.5552 24.656 25.1192 24.128C25.6832 23.6 25.9652 22.922 25.9652 22.094C25.9652 21.314 25.6712 20.678 25.0832 20.186C24.5072 19.694 23.7572 19.448 22.8332 19.448C21.9692 19.448 21.0872 19.688 20.1872 20.168L19.2332 19.538L19.5932 13.4H26.8472V14.714H20.8352L20.5652 18.746C21.4172 18.374 22.2452 18.188 23.0492 18.188C24.3092 18.188 25.3472 18.542 26.1632 19.25C26.9912 19.946 27.4052 20.888 27.4052 22.076C27.4052 23.3 26.9852 24.296 26.1452 25.064C25.3052 25.832 24.2252 26.216 22.9052 26.216Z" fill="#262424"/>
</svg>
