<svg width="40" height="40" viewBox="0 0 40 40" fill="none" xmlns="http://www.w3.org/2000/svg">
<rect x="0.5" y="0.5" width="39" height="39" rx="3.5" stroke="#E9E9E9"/>
<path d="M9.864 26V24.902L14.436 20.87C15.42 20.006 16.104 19.286 16.488 18.71C16.872 18.134 17.064 17.534 17.064 16.91C17.064 16.19 16.818 15.608 16.326 15.164C15.834 14.72 15.234 14.498 14.526 14.498C13.842 14.498 13.236 14.672 12.708 15.02C12.192 15.368 11.67 15.914 11.142 16.658L10.098 15.902C10.71 14.99 11.358 14.318 12.042 13.886C12.726 13.442 13.59 13.22 14.634 13.22C15.762 13.22 16.692 13.562 17.424 14.246C18.168 14.918 18.54 15.776 18.54 16.82C18.54 17.684 18.306 18.452 17.838 19.124C17.37 19.796 16.542 20.66 15.354 21.716L11.988 24.704H18.666V26H9.864ZM30.0534 24.326C29.0694 25.586 27.7854 26.216 26.2014 26.216C24.6174 26.216 23.3334 25.592 22.3494 24.344C21.3774 23.084 20.8914 21.536 20.8914 19.7C20.8914 17.888 21.3834 16.352 22.3674 15.092C23.3634 13.82 24.6534 13.184 26.2374 13.184C27.8214 13.184 29.0994 13.814 30.0714 15.074C31.0434 16.322 31.5294 17.864 31.5294 19.7C31.5294 21.512 31.0374 23.054 30.0534 24.326ZM23.4474 23.39C24.1674 24.41 25.0974 24.92 26.2374 24.92C27.3774 24.92 28.2954 24.416 28.9914 23.408C29.6994 22.388 30.0534 21.152 30.0534 19.7C30.0534 18.272 29.6934 17.048 28.9734 16.028C28.2654 14.996 27.3414 14.48 26.2014 14.48C25.0614 14.48 24.1374 14.99 23.4294 16.01C22.7214 17.018 22.3674 18.248 22.3674 19.7C22.3674 21.128 22.7274 22.358 23.4474 23.39Z" fill="#262424"/>
</svg>
