<svg width="40" height="40" viewBox="0 0 40 40" fill="none" xmlns="http://www.w3.org/2000/svg">
<rect x="0.5" y="0.5" width="39" height="39" rx="3.5" stroke="#E9E9E9"/>
<path d="M9.864 26V24.902L14.436 20.87C15.42 20.006 16.104 19.286 16.488 18.71C16.872 18.134 17.064 17.534 17.064 16.91C17.064 16.19 16.818 15.608 16.326 15.164C15.834 14.72 15.234 14.498 14.526 14.498C13.842 14.498 13.236 14.672 12.708 15.02C12.192 15.368 11.67 15.914 11.142 16.658L10.098 15.902C10.71 14.99 11.358 14.318 12.042 13.886C12.726 13.442 13.59 13.22 14.634 13.22C15.762 13.22 16.692 13.562 17.424 14.246C18.168 14.918 18.54 15.776 18.54 16.82C18.54 17.684 18.306 18.452 17.838 19.124C17.37 19.796 16.542 20.66 15.354 21.716L11.988 24.704H18.666V26H9.864ZM25.2294 26.216C23.5614 26.216 22.0614 25.55 20.7294 24.218L21.6654 23.192C22.8534 24.344 24.0474 24.92 25.2474 24.92C26.1474 24.92 26.8794 24.656 27.4434 24.128C28.0074 23.6 28.2894 22.922 28.2894 22.094C28.2894 21.314 27.9954 20.678 27.4074 20.186C26.8314 19.694 26.0814 19.448 25.1574 19.448C24.2934 19.448 23.4114 19.688 22.5114 20.168L21.5574 19.538L21.9174 13.4H29.1714V14.714H23.1594L22.8894 18.746C23.7414 18.374 24.5694 18.188 25.3734 18.188C26.6334 18.188 27.6714 18.542 28.4874 19.25C29.3154 19.946 29.7294 20.888 29.7294 22.076C29.7294 23.3 29.3094 24.296 28.4694 25.064C27.6294 25.832 26.5494 26.216 25.2294 26.216Z" fill="#262424"/>
</svg>
