<svg width="40" height="40" viewBox="0 0 40 40" fill="none" xmlns="http://www.w3.org/2000/svg">
<rect x="0.5" y="0.5" width="39" height="39" rx="3.5" stroke="#E9E9E9"/>
<path d="M19 24.0781C19 24.3586 18.7727 24.5859 18.4922 24.5859C18.2117 24.5859 17.9844 24.3586 17.9844 24.0781C17.9844 23.7976 18.2117 23.5703 18.4922 23.5703C18.7727 23.5703 19 23.7976 19 24.0781Z" fill="#262424"/>
<path d="M24.0781 13.1094C23.6606 13.1094 23.272 13.2361 22.9488 13.4531C22.6745 12.6686 21.9249 12.0938 21.0312 12.0938C20.4252 12.0938 19.8809 12.3607 19.5084 12.7831C19.1154 12.3379 18.5674 12.0938 17.9844 12.0938C17.3782 12.0938 16.8335 12.3611 16.4609 12.7837C16.0884 12.3611 15.5437 12.0938 14.9375 12.0938C13.8175 12.0938 12.9062 13.005 12.9062 14.125V16.9697C12.2737 17.4458 11.8906 18.1986 11.8906 19C11.8906 21.7061 13.1651 24.2717 15.3438 25.9062C15.7208 26.1891 15.9531 26.637 15.9531 27.125V31.4922C15.9531 31.7727 16.1805 32 16.4609 32H24.5859C24.8664 32 25.0938 31.7727 25.0938 31.4922V27.2067C25.4242 26.2014 25.6775 25.1626 25.8473 24.1176C26.0213 23.045 26.1094 21.9511 26.1094 20.8662C26.1094 20.2094 26.1094 15.801 26.1094 15.1406C26.1094 14.0185 25.2005 13.1094 24.0781 13.1094ZM24.0781 14.125C24.6391 14.125 25.0938 14.5797 25.0938 15.1406V18.4922C25.0938 19.0522 24.6381 19.5078 24.0781 19.5078C23.5181 19.5078 23.0625 19.0522 23.0625 18.4922C23.0625 17.6291 23.0625 15.9313 23.0625 15.1406C23.0625 14.5806 23.5181 14.125 24.0781 14.125ZM21.0312 13.1094C21.5922 13.1094 22.0469 13.564 22.0469 14.125V17.4766C22.0469 18.0365 21.5912 18.4922 21.0312 18.4922C20.4713 18.4922 20.0156 18.0365 20.0156 17.4766V14.125C20.0156 13.565 20.4713 13.1094 21.0312 13.1094ZM17.9844 13.1094C18.5453 13.1094 19 13.564 19 14.125V16.4609H16.9688V14.125C16.9688 13.565 17.4244 13.1094 17.9844 13.1094ZM14.9375 13.1094C15.4975 13.1094 15.9531 13.565 15.9531 14.125V16.4609H14.4297C14.2585 16.4609 14.0885 16.4786 13.9219 16.5125V14.125C13.9219 13.565 14.3775 13.1094 14.9375 13.1094ZM16.9688 30.9844V28.6484H24.0781V30.9844H16.9688ZM24.845 23.9549C24.5177 25.9681 24.0781 26.8814 24.0781 27.125V27.6328H16.9688V27.125C16.9688 26.3383 16.6022 25.5805 15.9531 25.0938C14.0278 23.6493 12.9062 21.3841 12.9062 19C12.9062 18.1746 13.5741 17.476 14.4297 17.476H18.949C18.7132 18.6336 17.687 19.5078 16.4609 19.5078H15.4453C15.1648 19.5078 14.9375 19.7351 14.9375 20.0156C14.9375 20.2961 15.1648 20.5234 15.4453 20.5234H15.9531C16.9194 20.5234 17.7572 21.21 17.9453 22.1556C17.9996 22.4287 18.2655 22.6096 18.5426 22.5545C18.8175 22.4999 18.9962 22.2325 18.9415 21.9574C18.802 21.2562 18.4243 20.6502 17.9034 20.2164C18.5678 19.92 19.1258 19.4267 19.5007 18.8098C19.8734 19.237 20.4211 19.5078 21.0312 19.5078C21.4492 19.5078 21.838 19.3809 22.1613 19.1635C22.4392 19.9545 23.1932 20.5234 24.0781 20.5234C24.4479 20.5234 24.7948 20.4237 25.0938 20.2501V20.8662C25.0938 21.8967 25.01 22.9361 24.845 23.9549Z" fill="#262424"/>
<path d="M20.0156 9.55469V6.50781C20.0156 6.22733 19.7883 6 19.5078 6C19.2273 6 19 6.22733 19 6.50781V9.55469C19 9.83517 19.2273 10.0625 19.5078 10.0625C19.7883 10.0625 20.0156 9.83517 20.0156 9.55469Z" fill="#262424"/>
<path d="M23.4323 10.2009L25.5865 8.04605C25.7847 7.84769 25.7847 7.52634 25.5863 7.32797C25.388 7.12961 25.0666 7.12961 24.8683 7.32797L22.714 9.4826C22.5159 9.68097 22.5159 10.0025 22.7142 10.2009C22.9126 10.399 23.2339 10.3992 23.4323 10.2009Z" fill="#262424"/>
<path d="M16.5988 9.90299C16.7971 9.70463 16.7969 9.38308 16.5988 9.18492L14.4439 7.03068C14.2458 6.83251 13.9242 6.83251 13.7258 7.03088C13.5275 7.22904 13.5277 7.55059 13.7258 7.74896L15.8805 9.90319C16.0788 10.1014 16.4004 10.1014 16.5988 9.90299Z" fill="#262424"/>
</svg>
