<svg width="40" height="40" viewBox="0 0 40 40" fill="none" xmlns="http://www.w3.org/2000/svg">
<rect x="0.5" y="0.5" width="39" height="39" rx="3.5" stroke="#E9E9E9"/>
<path d="M16.0072 32.1068C15.9179 32.1068 15.8277 32.0867 15.7436 32.0445C15.4801 31.9129 15.354 31.6071 15.448 31.328L18.9156 21.0277H14.2524C14.0501 21.0277 13.8614 20.9238 13.7533 20.7526C13.6451 20.5811 13.6324 20.3665 13.7195 20.1835L19.2042 8.66535C19.3019 8.45968 19.5095 8.32886 19.7371 8.32886H23.6862C23.8869 8.32886 24.0737 8.43087 24.1826 8.59947C24.2912 8.76807 24.3068 8.98035 24.2241 9.16312L20.8722 16.556H25.8801C26.0995 16.556 26.3005 16.6774 26.4025 16.8715C26.5047 17.0653 26.4908 17.2998 26.3668 17.4807L16.4941 31.8506C16.3805 32.0157 16.1963 32.1068 16.0072 32.1068ZM15.1875 19.8467H19.7374C19.9274 19.8467 20.106 19.9384 20.2167 20.0926C20.3277 20.247 20.3574 20.4453 20.2968 20.6255L17.917 27.6944L24.7585 17.7367H19.9565C19.7558 17.7367 19.569 17.6346 19.4601 17.466C19.3515 17.2974 19.3359 17.0852 19.4186 16.9024L22.7703 9.50929H20.1097L15.1875 19.8467Z" fill="#262424"/>
</svg>
