<svg width="40" height="40" viewBox="0 0 40 40" fill="none" xmlns="http://www.w3.org/2000/svg">
<rect x="0.5" y="0.5" width="39" height="39" rx="3.5" stroke="#E9E9E9"/>
<path d="M25.1377 13.781C23.6698 12.3691 21.7417 11.6414 19.7015 11.716C15.7892 11.8715 12.5984 15.1805 12.586 19.099C12.5798 20.8344 13.1893 22.5262 14.3027 23.8573C15.9074 25.7854 16.7906 28.2174 16.7906 30.7116C16.7906 30.7116 16.6227 31.856 17.4375 31.856H22.5627C23.3962 31.856 23.2096 30.7116 23.2096 30.7116C23.2096 28.2734 24.1052 25.8601 25.8032 23.7329C26.8544 22.408 27.4142 20.8157 27.4142 19.1239C27.4142 17.09 26.6056 15.1867 25.1377 13.781ZM24.7894 22.9243C22.9421 25.2381 21.9531 27.8753 21.9158 30.5623H18.0844C18.047 27.8193 17.0643 25.151 15.2979 23.03C14.3835 21.9291 13.8797 20.5358 13.8859 19.1053C13.8984 15.8709 16.5294 13.1404 19.7575 13.0098C21.4431 12.9476 23.0354 13.5509 24.2421 14.714C25.4549 15.8771 26.1205 17.4446 26.1205 19.1239C26.1142 20.5234 25.6602 21.8358 24.7894 22.9243Z" fill="#262424"/>
<path d="M28.5341 9.53294C28.2791 9.27792 27.8685 9.27792 27.6197 9.53294L26.0399 11.1128C25.7849 11.3678 25.7849 11.7783 26.0399 12.0271C26.2949 12.2759 26.7054 12.2821 26.9542 12.0271L28.5341 10.4473C28.7891 10.1985 28.7891 9.78795 28.5341 9.53294Z" fill="#262424"/>
<path d="M19.9994 9.52668C20.3602 9.52668 20.6463 9.23434 20.6463 8.87981V6.64687C20.6463 6.28611 20.3539 6 19.9994 6C19.6449 6 19.3525 6.29233 19.3525 6.64687V8.87981C19.3525 9.24056 19.6387 9.52668 19.9994 9.52668Z" fill="#262424"/>
<path d="M13.9614 12.0333C14.2164 11.7783 14.2164 11.3678 13.9614 11.119L12.3816 9.53916C12.1266 9.28415 11.7161 9.28415 11.4673 9.53916C11.2185 9.79418 11.2122 10.2047 11.4673 10.4535L13.0471 12.0333C13.3021 12.2821 13.7126 12.2821 13.9614 12.0333Z" fill="#262424"/>
<path d="M31.4198 17.4197H29.1869C28.8262 17.4197 28.54 17.712 28.54 18.0665C28.54 18.4211 28.8324 18.7134 29.1869 18.7134H31.4198C31.7806 18.7134 32.0667 18.4211 32.0667 18.0665C32.0667 17.712 31.7744 17.4197 31.4198 17.4197Z" fill="#262424"/>
<path d="M10.8134 17.4197H8.58046C8.21971 17.4197 7.93359 17.712 7.93359 18.0665C7.93359 18.4211 8.22593 18.7134 8.58046 18.7134H10.8134C11.1742 18.7134 11.4603 18.4211 11.4603 18.0665C11.4603 17.712 11.1742 17.4197 10.8134 17.4197Z" fill="#262424"/>
</svg>
