<svg width="40" height="40" viewBox="0 0 40 40" fill="none" xmlns="http://www.w3.org/2000/svg">
<rect x="0.5" y="0.5" width="39" height="39" rx="3.5" stroke="#E9E9E9"/>
<path d="M10 25.8298V15H14.6499C15.9784 15 17.0031 15.361 17.7241 16.083C18.2802 16.6399 18.5583 17.3619 18.5583 18.2489C18.5583 19.1153 18.2905 19.8167 17.755 20.353C17.2194 20.8894 16.5088 21.24 15.6231 21.4051L18.9445 25.8298H17.446L14.31 21.6217H11.2204V25.8298H10ZM11.2204 20.5232H14.5417C15.3656 20.5232 16.0351 20.3221 16.55 19.9198C17.0649 19.5176 17.3224 18.9658 17.3224 18.2644C17.3224 17.594 17.0752 17.0731 16.5809 16.7018C16.0969 16.3202 15.4223 16.1294 14.5572 16.1294H11.2204V20.5232Z" fill="#262424"/>
<path d="M25.4891 26C24.1194 26 23.0278 25.5926 22.2141 24.7778C21.4005 23.9526 20.9937 22.7923 20.9937 21.2968V15H22.2141V21.2194C22.2141 22.3849 22.5025 23.2874 23.0792 23.9269C23.6663 24.556 24.4799 24.8706 25.52 24.8706C26.5396 24.8706 27.3378 24.5663 27.9145 23.9578C28.4912 23.3493 28.7796 22.4623 28.7796 21.2968V15H30V21.2039C30 22.7511 29.5932 23.9372 28.7796 24.7623C27.966 25.5874 26.8692 26 25.4891 26Z" fill="#262424"/>
</svg>
