<svg width="40" height="40" viewBox="0 0 40 40" fill="none" xmlns="http://www.w3.org/2000/svg">
<rect x="0.5" y="0.5" width="39" height="39" rx="3.5" stroke="#E9E9E9"/>
<path d="M20.0003 31.1906C25.3432 31.1906 28.2857 28.052 28.2857 22.3528C28.2857 17.0169 20.7328 8.53321 20.4113 8.17531C20.3037 8.06338 20.1554 8 20.0003 8C19.8452 8 19.6966 8.06338 19.5893 8.17531C19.2678 8.53321 11.7148 17.0169 11.7148 22.3528C11.7148 28.052 14.6574 31.1906 20.0003 31.1906ZM20.0003 9.38657C21.5816 11.2424 27.181 18.1111 27.181 22.3528C27.181 25.8806 25.935 30.0859 20.0003 30.0859C14.0656 30.0859 12.8196 25.8806 12.8196 22.3528C12.8196 18.1111 18.4187 11.2424 20.0003 9.38657Z" fill="#262424"/>
<path d="M18.8398 28.9785C18.8581 28.9804 18.8765 28.9812 18.8951 28.9812C19.1893 28.9812 19.4321 28.7503 19.4469 28.4563C19.4614 28.1624 19.2433 27.9086 18.9504 27.8792C17.7965 27.8212 16.7226 27.2729 15.9989 26.3723C14.5298 24.4568 15.0164 21.3689 15.0207 21.3382C15.0609 21.0423 14.8586 20.768 14.5641 20.7189C14.2696 20.6701 13.9893 20.864 13.9316 21.1569C13.9071 21.3029 13.3593 24.7395 15.1186 27.0396C16.0237 28.1893 17.3788 28.8954 18.8398 28.9785Z" fill="#262424"/>
</svg>
