<svg width="40" height="40" viewBox="0 0 40 40" fill="none" xmlns="http://www.w3.org/2000/svg">
<rect x="0.5" y="0.5" width="39" height="39" rx="3.5" stroke="#E9E9E9"/>
<path d="M30.5469 14.4102C30.2932 13.4679 29.5502 12.7249 28.6078 12.4712C26.8862 12 20 12 20 12C20 12 13.1137 12 11.3921 12.453C10.4679 12.7068 9.70675 13.4679 9.45305 14.4102C9 16.1318 9 19.7018 9 19.7018C9 19.7018 9 23.2899 9.45305 24.9934C9.70675 25.9357 10.4497 26.6787 11.3921 26.9324C13.1318 27.4036 20 27.4036 20 27.4036C20 27.4036 26.8862 27.4036 28.6078 26.9505C29.5502 26.6968 30.2932 25.9538 30.5469 25.0115C30.9999 23.2899 30.9999 19.7199 30.9999 19.7199C30.9999 19.7199 31.018 16.1318 30.5469 14.4102Z" fill="#FF0000"/>
<path d="M17.8076 22.9999L23.5341 19.7017L17.8076 16.4036V22.9999Z" fill="white"/>
</svg>
