<svg width="312" height="68" viewBox="0 0 312 68" fill="none" xmlns="http://www.w3.org/2000/svg">
<path d="M87.1199 55.67V5.45998C58.2299 -9.78002 34.26 15.69 4.45996 9.08999C28.73 21.6 87.1199 55.67 87.1199 55.67Z" fill="url(#paint0_linear)"/>
<path d="M2.59961 12.05V62.27C30.8096 77.39 55.4596 52.04 85.2496 58.63C41.3796 34 2.59961 12.05 2.59961 12.05Z" fill="#6D6E70"/>
<path d="M73.33 14.38H63.79V15.86H73.33V14.38Z" fill="white"/>
<path d="M69.3001 10.34H67.8301V19.89H69.3001V10.34Z" fill="white"/>
<path d="M0.889648 10.34V60.56C29.0996 75.68 53.7497 50.34 83.5497 56.92C39.6797 32.32 0.889648 10.34 0.889648 10.34Z" fill="url(#paint1_linear)"/>
<path d="M22.3799 49.93H12.8398V51.4H22.3799V49.93Z" fill="#6D6E70"/>
<path d="M112 27.4L110.39 22.18H104L102.39 27.4H99L105.51 7.56H109.32L115.66 27.4H112ZM109.65 19.4C108.76 16.4 107.96 13.55 107.3 10.79C106.46 13.79 105.6 16.64 104.77 19.4H109.65Z" fill="#262424"/>
<path d="M118 13.15L121.13 12.54V18.62H122.48C123.048 18.6785 123.618 18.5254 124.08 18.19C124.404 17.8096 124.612 17.3447 124.68 16.85L125.06 15.21C125.146 14.5923 125.414 14.0143 125.83 13.55C126.468 12.986 127.299 12.6888 128.15 12.72L129.21 12.6L129.79 14.75L129.07 14.9C128.776 14.9347 128.499 15.0527 128.27 15.24C128.012 15.5222 127.833 15.867 127.75 16.24L127.29 17.79C127.169 18.283 126.925 18.7371 126.58 19.11C126.26 19.413 125.862 19.6208 125.43 19.71V19.77C125.824 19.8708 126.188 20.0665 126.49 20.34C126.889 20.7858 127.183 21.3155 127.35 21.89L128.07 24.04C128.168 24.4115 128.353 24.7543 128.61 25.04C128.885 25.2621 129.212 25.4101 129.56 25.47L130.13 25.58L129.56 27.73L128.56 27.65C127.571 27.6898 126.6 27.3859 125.81 26.79C125.34 26.2454 125.032 25.5804 124.92 24.87L124.46 22.87C124.401 22.3343 124.17 21.8323 123.8 21.44C123.4 21.1371 122.898 21.0009 122.4 21.06H121.11V27.49H118V13.15Z" fill="#262424"/>
<path d="M133.18 13.15L136.3 12.54V18.62H137.65C138.218 18.6785 138.787 18.5254 139.25 18.19C139.573 17.8085 139.784 17.3446 139.86 16.85L140.23 15.21C140.315 14.5923 140.583 14.0143 141 13.55C141.642 12.9862 142.476 12.6893 143.33 12.72L144.39 12.6L144.96 14.75L144.24 14.9C143.946 14.9347 143.668 15.0527 143.44 15.24C143.182 15.5222 143.003 15.867 142.92 16.24L142.47 17.79C142.339 18.2815 142.092 18.7343 141.75 19.11C141.43 19.413 141.031 19.6208 140.6 19.71V19.77C140.994 19.8708 141.358 20.0665 141.66 20.34C142.059 20.7858 142.353 21.3155 142.52 21.89L143.24 24.04C143.338 24.4115 143.523 24.7543 143.78 25.04C144.069 25.27 144.414 25.4184 144.78 25.47L145.35 25.58L144.78 27.73L143.78 27.65C142.788 27.6913 141.812 27.3874 141.02 26.79C140.55 26.2454 140.242 25.5804 140.13 24.87L139.68 22.87C139.612 22.3367 139.382 21.8373 139.02 21.44C138.614 21.1401 138.111 21.0044 137.61 21.06H136.3V27.49H133.18V13.15Z" fill="#262424"/>
<path d="M159.87 12.89L154.51 28.37C154.126 29.7034 153.441 30.9313 152.51 31.96C151.565 32.854 150.36 33.4248 149.07 33.59L148.07 31.59C148.98 31.4167 149.818 30.9783 150.48 30.33C151.232 29.5012 151.755 28.4917 152 27.4H151C150.46 25.4 150.09 24.27 149.77 23.3L146.33 13.12L149.54 12.57L152.21 21.4C152.44 22.18 152.78 23.64 152.98 24.64H153C153.32 23.33 153.72 21.89 154.06 20.74L156.47 12.89H159.87Z" fill="#262424"/>
<path d="M166.999 12.89L169.329 20.52C169.609 21.52 169.839 22.09 170.069 23.18C170.389 21.98 170.589 21.35 170.819 20.57L173.199 12.89H177.039L178.499 27.4H175.549L174.829 18.94C174.829 18.45 174.829 17.94 174.829 16.5H174.709C174.563 17.2571 174.373 18.005 174.139 18.74L171.299 27.4H168.799L166.169 19C165.889 18.1836 165.669 17.3481 165.509 16.5H165.389C165.389 16.96 165.389 18.25 165.329 18.82L164.679 27.4H161.779L163.209 12.89H166.999Z" fill="#262424"/>
<path d="M193.939 12.89L188.579 28.37C188.195 29.7034 187.511 30.9313 186.579 31.96C185.633 32.8517 184.429 33.4221 183.139 33.59L182.139 31.59C183.049 31.4167 183.888 30.9783 184.549 30.33C185.295 29.5125 185.818 28.5174 186.069 27.44H185.069C184.529 25.44 184.159 24.31 183.839 23.34L180.399 13.16L183.609 12.61L186.279 21.44C186.509 22.22 186.849 23.68 187.049 24.68H187.109C187.429 23.37 187.829 21.93 188.169 20.78L190.579 12.93L193.939 12.89Z" fill="#262424"/>
<path d="M207.39 12.89V27.4H204.27V15.24H201L200.88 16.82C200.83 17.68 200.74 18.88 200.63 20.17C200.54 21.03 200.37 22.84 200.2 23.87C200.111 24.8452 199.719 25.7682 199.08 26.51C198.23 27.198 197.174 27.5817 196.08 27.6L195.3 27.68L194.67 25.53L195.3 25.39C195.823 25.2559 196.306 24.9987 196.71 24.64C197.57 23.78 197.6 22.12 197.77 20.34C197.94 18.56 198.03 17.39 198.14 15.61L198.31 12.89H207.39Z" fill="#262424"/>
<path d="M222.419 27.4H219.289V21.66H217.999C217.728 21.6288 217.453 21.6536 217.192 21.7327C216.93 21.8118 216.688 21.9436 216.479 22.12C216.145 22.5005 215.926 22.969 215.849 23.47L215.439 24.9C215.309 25.5568 215.013 26.1694 214.579 26.68C213.832 27.2749 212.905 27.5992 211.949 27.6L210.829 27.68L210.279 25.53L210.739 25.42C211.148 25.3355 211.531 25.1575 211.859 24.9C212.167 24.5832 212.385 24.1895 212.489 23.76L212.919 22.46C213.058 21.9832 213.317 21.5497 213.669 21.2C213.99 20.8591 214.41 20.6281 214.869 20.54V20.49C213.989 20.4308 213.168 20.027 212.584 19.3661C212 18.7052 211.7 17.8406 211.749 16.96C211.731 16.4404 211.819 15.9225 212.01 15.4389C212.202 14.9554 212.49 14.5165 212.859 14.15C214.052 13.2039 215.563 12.7527 217.079 12.89H222.439L222.419 27.4ZM217.489 15.18C216.812 15.1159 216.136 15.3127 215.599 15.73C215.405 15.9314 215.254 16.1698 215.155 16.4309C215.055 16.6921 215.009 16.9707 215.019 17.25C215.001 17.5332 215.044 17.8169 215.144 18.0824C215.244 18.3479 215.399 18.5891 215.599 18.79C216.138 19.2344 216.822 19.4625 217.519 19.43H219.289V15.18H217.489Z" fill="#262424"/>
<path d="M231.74 27.4H228.62V15.24H224.72V12.89H235.9L235.5 15.24H231.74V27.4Z" fill="#262424"/>
<path d="M243.73 27.77C239.8 27.77 237.33 24.82 237.33 20.14C237.33 15.46 239.83 12.52 243.67 12.52C247.8 12.52 250.15 15.58 250.15 20.17C250.15 24.76 247.66 27.77 243.73 27.77ZM243.67 14.87C241.67 14.87 240.83 16.39 240.83 19.87C240.83 24.15 241.89 25.38 243.76 25.38C245.63 25.38 246.65 23.86 246.65 20.16C246.65 16.1 245.5 14.87 243.67 14.87Z" fill="#262424"/>
<path d="M256.63 12.52C256.776 13.0818 256.854 13.6594 256.86 14.24C257.339 13.6876 257.935 13.2473 258.603 12.9501C259.272 12.6529 259.998 12.506 260.73 12.52C261.382 12.5039 262.031 12.6196 262.637 12.8602C263.244 13.1007 263.796 13.4612 264.26 13.92C265.26 14.92 266.21 16.67 266.21 19.97C266.21 23.27 265.29 25.22 264.12 26.36C263.621 26.8284 263.035 27.1941 262.395 27.436C261.755 27.6779 261.073 27.7914 260.39 27.77C259.148 27.7668 257.945 27.3399 256.98 26.56C257.04 27.22 257.06 28 257.06 28.56V32.81L254.06 33.58V16.64C254.093 15.4298 253.996 14.2194 253.77 13.03L256.63 12.52ZM257.06 23.81C257.82 24.6037 258.861 25.067 259.96 25.1C260.254 25.112 260.549 25.0651 260.825 24.9621C261.101 24.8591 261.355 24.702 261.57 24.5C262.83 23.35 262.83 21.26 262.83 20.14C262.83 18.28 262.66 16.7 261.83 15.84C261.622 15.6182 261.369 15.4442 261.087 15.3302C260.806 15.2163 260.503 15.165 260.2 15.18C259.604 15.2046 259.02 15.3493 258.482 15.6054C257.944 15.8614 257.464 16.2236 257.07 16.67L257.06 23.81Z" fill="#262424"/>
<path d="M273.069 27.4H269.939V13.15L273.069 12.54V18.54H277.999V13.18L281.119 12.57V27.4H277.999V20.86H273.099L273.069 27.4Z" fill="#262424"/>
<path d="M295.61 28C295.157 27.8351 294.745 27.576 294.4 27.2399C294.056 26.9037 293.786 26.4981 293.61 26.05C293.122 26.6268 292.506 27.0824 291.812 27.3809C291.118 27.6793 290.364 27.8125 289.61 27.77C286.29 27.77 284.8 25.99 284.8 23.47C284.8 20.11 287.32 18.42 291.96 18.42H292.96V17.65C292.96 15.99 292.67 15.1 290.96 15.1C289.394 15.2563 287.899 15.8295 286.63 16.76L285.23 14.49C287.033 13.2152 289.181 12.5178 291.39 12.49C293.66 12.49 295.18 13.32 295.81 14.89C296.06 15.53 296.06 16.3 296.04 18.45L295.98 22.61C295.98 24.56 296.12 25.19 297.24 25.96L295.61 28ZM292.34 20.54C289.18 20.54 288.24 21.46 288.24 23.3C288.201 23.5799 288.225 23.8649 288.309 24.1347C288.393 24.4044 288.536 24.6522 288.727 24.8605C288.918 25.0687 289.153 25.2322 289.414 25.3393C289.676 25.4464 289.958 25.4944 290.24 25.48C290.762 25.4657 291.272 25.3243 291.727 25.0681C292.182 24.812 292.567 24.4488 292.85 24.01L292.91 20.57C292.91 20.57 292.57 20.54 292.34 20.54Z" fill="#262424"/>
<path d="M311.18 27.4H308.05V21.66H306.73C306.458 21.6288 306.183 21.6536 305.922 21.7327C305.661 21.8118 305.418 21.9436 305.21 22.12C304.882 22.5054 304.665 22.9717 304.58 23.47L304.18 24.9C304.049 25.5568 303.753 26.1694 303.32 26.68C302.568 27.2756 301.638 27.5998 300.68 27.6L299.57 27.68L299.02 25.53L299.48 25.42C299.887 25.3328 300.27 25.1551 300.6 24.9C300.904 24.5807 301.121 24.188 301.23 23.76L301.66 22.46C301.795 21.9837 302.049 21.55 302.4 21.2C302.725 20.8605 303.148 20.6299 303.61 20.54V20.49C302.777 20.4316 301.993 20.0768 301.4 19.49C301.089 19.1563 300.848 18.7644 300.69 18.337C300.533 17.9097 300.461 17.4552 300.48 17C300.46 16.4794 300.549 15.9604 300.742 15.4764C300.935 14.9924 301.227 14.5542 301.6 14.19C302.792 13.2439 304.303 12.7927 305.82 12.93H311.18V27.4ZM306.25 15.18C305.569 15.1164 304.891 15.3129 304.35 15.73C304.159 15.9332 304.01 16.1721 303.913 16.433C303.815 16.6939 303.769 16.9716 303.78 17.25C303.76 17.5324 303.801 17.8157 303.899 18.0812C303.997 18.3467 304.151 18.5883 304.35 18.79C304.888 19.2344 305.572 19.4625 306.27 19.43H308.05V15.18H306.25Z" fill="#262424"/>
<path d="M99.0693 50.92V41.67H104.289L104.139 42.62H100.139V45.5H101.659C102.496 45.4419 103.331 45.6333 104.059 46.05C104.394 46.3151 104.66 46.6573 104.834 47.0473C105.008 47.4374 105.086 47.8637 105.059 48.29C105.071 48.634 105.013 48.9768 104.889 49.2981C104.765 49.6193 104.578 49.9124 104.339 50.16C103.579 50.9 102.609 50.92 101.399 50.92H99.0693ZM102.069 50.01C102.313 50.036 102.56 50.0131 102.796 49.9427C103.031 49.8723 103.25 49.7558 103.439 49.6C103.605 49.4236 103.733 49.216 103.817 48.9893C103.901 48.7627 103.939 48.5215 103.929 48.28C103.947 47.9987 103.902 47.7169 103.796 47.4555C103.691 47.1941 103.528 46.9598 103.319 46.77C102.849 46.4647 102.286 46.3337 101.729 46.4H100.139V50L102.069 50.01Z" fill="#262424"/>
<path d="M115.699 50.92L114.819 48.07H111.369L110.489 50.92H109.369L112.449 41.67H113.889L116.949 50.92H115.699ZM113.129 42.64L111.669 47.17H114.539L113.129 42.64Z" fill="#262424"/>
<path d="M123.65 44.76C123.49 47.63 123.32 49.58 122.57 50.38C122.206 50.7327 121.726 50.9392 121.22 50.96L120.76 51.01L120.56 50.24L120.83 50.16C121.013 50.1005 121.194 50.0304 121.37 49.95C122.19 49.53 122.5 48.29 122.72 43.88L122.83 41.67H127.24V50.92H126.14V42.54H123.77L123.65 44.76Z" fill="#262424"/>
<path d="M138.05 42.6H135.54V50.92H134.44V42.6H132V41.67H138.16L138.05 42.6Z" fill="#262424"/>
<path d="M148.059 50.92V44.5C148.059 44.21 148.059 43.25 148.129 42.74C148.034 43.0831 147.91 43.4176 147.759 43.74L143.879 50.95H142.739V41.7H143.839V48.24C143.827 48.7315 143.79 49.2221 143.729 49.71C143.879 49.2713 144.06 48.8436 144.269 48.43L147.839 41.7H149.159V50.95L148.059 50.92Z" fill="#262424"/>
<path d="M160.41 50.92V44.5C160.41 44.21 160.41 43.25 160.48 42.74C160.394 43.0861 160.27 43.4215 160.11 43.74L156.23 50.95H155.09V41.7H156.19V48.24C156.19 48.49 156.19 49.17 156.09 49.71C156.236 49.2697 156.416 48.8417 156.63 48.43L160.2 41.7H161.52V50.95L160.41 50.92ZM160.25 39.72C160.099 40.0314 159.885 40.3075 159.62 40.53C159.238 40.8036 158.78 40.9507 158.31 40.9507C157.84 40.9507 157.382 40.8036 157 40.53C156.735 40.3075 156.52 40.0314 156.37 39.72L156.94 39.32C157.102 39.5407 157.306 39.7275 157.54 39.87C157.777 39.9944 158.042 40.0594 158.31 40.0594C158.578 40.0594 158.842 39.9944 159.08 39.87C159.314 39.7275 159.518 39.5407 159.68 39.32L160.25 39.72Z" fill="#262424"/>
<path d="M173.409 50.32C172.644 50.8153 171.751 51.0791 170.839 51.08C170.326 51.0826 169.819 50.973 169.352 50.7588C168.886 50.5446 168.472 50.231 168.139 49.84C167.396 48.7909 167.009 47.5307 167.036 46.2452C167.063 44.9598 167.503 43.717 168.289 42.7C168.624 42.3202 169.037 42.0171 169.499 41.8117C169.962 41.6063 170.463 41.5034 170.969 41.51C171.792 41.5063 172.593 41.7734 173.249 42.27L172.659 42.98C172.154 42.5953 171.534 42.3911 170.899 42.4C170.396 42.3897 169.902 42.543 169.493 42.8369C169.084 43.1308 168.781 43.5494 168.629 44.03C168.33 44.8106 168.197 45.6451 168.239 46.48C168.205 47.1592 168.304 47.8385 168.529 48.48C168.713 48.9893 169.051 49.4291 169.495 49.7389C169.939 50.0487 170.468 50.2132 171.009 50.21C171.662 50.2226 172.3 50.0147 172.819 49.62L173.409 50.32Z" fill="#262424"/>
<path d="M184.749 42.33L184.309 42.44C184.156 42.4767 184.01 42.5411 183.879 42.63C183.696 42.7859 183.576 43.0024 183.539 43.24L183.179 44.56C183.102 44.8866 182.963 45.1955 182.769 45.47C182.611 45.6999 182.393 45.8829 182.139 46C182.355 46.0817 182.545 46.2199 182.689 46.4C182.914 46.6955 183.071 47.0369 183.149 47.4L183.679 49.26C183.689 49.4001 183.734 49.5354 183.809 49.6541C183.884 49.7727 183.987 49.871 184.109 49.94C184.285 50.0204 184.465 50.0905 184.649 50.15L184.919 50.23L184.709 51L183.959 50.92C183.749 50.9195 183.542 50.8747 183.351 50.7885C183.16 50.7024 182.989 50.5768 182.849 50.42C182.63 50.0647 182.494 49.6649 182.449 49.25L182.149 47.75C182.098 47.3823 181.946 47.036 181.709 46.75C181.585 46.6383 181.439 46.5524 181.281 46.4975C181.124 46.4426 180.956 46.4196 180.789 46.43H179.629V50.89H178.529V41.64H179.629V45.52H180.929C181.252 45.5392 181.57 45.4356 181.819 45.23C182.044 44.9569 182.192 44.6291 182.249 44.28L182.519 42.95C182.567 42.5833 182.716 42.2372 182.949 41.95C183.23 41.7131 183.582 41.579 183.949 41.57L184.539 41.51L184.749 42.33Z" fill="#262424"/>
<path d="M195.22 50.92L194.35 48.07H190.9L190.01 50.92H188.89L191.97 41.67H193.42L196.47 50.92H195.22ZM192.65 42.64L191.19 47.17H194.06L192.65 42.64Z" fill="#262424"/>
<path d="M205.89 50.92V46.74H204.45C204.283 46.7296 204.116 46.7525 203.958 46.8075C203.8 46.8624 203.654 46.9483 203.53 47.06C203.293 47.346 203.141 47.6923 203.09 48.06L202.85 49.27C202.806 49.6865 202.665 50.0871 202.44 50.44C202.299 50.5927 202.13 50.7157 201.941 50.8016C201.752 50.8875 201.547 50.9345 201.34 50.94L200.58 51.02L200.38 50.25L200.65 50.17C200.77 50.17 201.07 50.02 201.19 49.96C201.31 49.9 201.5 49.73 201.62 49.3L202.02 47.79C202.093 47.4217 202.259 47.0778 202.5 46.79C202.722 46.5504 203.011 46.3832 203.33 46.31C202.907 46.2636 202.506 46.1009 202.17 45.84C201.932 45.6406 201.742 45.391 201.612 45.1091C201.482 44.8273 201.417 44.5202 201.42 44.21C201.416 43.84 201.494 43.4737 201.65 43.138C201.806 42.8023 202.035 42.5057 202.32 42.27C203.011 41.8154 203.837 41.6141 204.66 41.7H207V50.95L205.89 50.92ZM204.64 42.54C204.189 42.5257 203.742 42.6254 203.34 42.83C203.092 42.9759 202.89 43.1879 202.756 43.4422C202.621 43.6965 202.561 43.9831 202.58 44.27C202.575 44.5152 202.63 44.758 202.74 44.9774C202.85 45.1968 203.011 45.3864 203.21 45.53C203.664 45.803 204.192 45.9256 204.72 45.88H205.88V42.54H204.64Z" fill="#262424"/>
<path d="M225.61 42.33L225.17 42.44C225.016 42.4767 224.87 42.5411 224.74 42.63C224.557 42.7859 224.436 43.0024 224.4 43.24L224.04 44.56C223.962 44.8866 223.823 45.1955 223.63 45.47C223.471 45.6999 223.253 45.8829 223 46C223.215 46.0817 223.405 46.2199 223.55 46.4C223.774 46.6955 223.932 47.0369 224.01 47.4L224.54 49.26C224.55 49.4001 224.594 49.5354 224.669 49.6541C224.744 49.7727 224.847 49.871 224.97 49.94C225.09 50 225.38 50.11 225.5 50.15L225.77 50.23L225.57 51L224.82 50.92C224.61 50.9195 224.403 50.8747 224.211 50.7885C224.02 50.7024 223.849 50.5768 223.71 50.42C223.491 50.0647 223.354 49.6649 223.31 49.25L223.01 47.75C222.959 47.3823 222.806 47.036 222.57 46.75C222.445 46.6383 222.3 46.5524 222.142 46.4975C221.984 46.4426 221.817 46.4196 221.65 46.43H220.49V50.89H219.39V41.64H220.49V45.52H221.79C222.112 45.5392 222.43 45.4356 222.68 45.23C222.904 44.9569 223.053 44.6291 223.11 44.28L223.38 42.95C223.428 42.5833 223.577 42.2372 223.81 41.95C224.09 41.7131 224.443 41.579 224.81 41.57L225.41 41.51L225.61 42.33Z" fill="#262424"/>
<path d="M236.89 42.75C237.569 43.8076 237.93 45.0381 237.93 46.295C237.93 47.5519 237.569 48.7824 236.89 49.84C236.559 50.2281 236.148 50.5397 235.686 50.7535C235.223 50.9672 234.719 51.0779 234.21 51.0779C233.7 51.0779 233.196 50.9672 232.734 50.7535C232.271 50.5397 231.86 50.2281 231.53 49.84C230.85 48.7824 230.489 47.5519 230.489 46.295C230.489 45.0381 230.85 43.8076 231.53 42.75C231.86 42.3619 232.271 42.0502 232.734 41.8365C233.196 41.6228 233.7 41.5121 234.21 41.5121C234.719 41.5121 235.223 41.6228 235.686 41.8365C236.148 42.0502 236.559 42.3619 236.89 42.75ZM232.27 43.48C231.55 45.2877 231.55 47.3023 232.27 49.11C232.468 49.448 232.752 49.7283 233.092 49.9231C233.432 50.1178 233.818 50.2203 234.21 50.2203C234.602 50.2203 234.987 50.1178 235.327 49.9231C235.668 49.7283 235.951 49.448 236.15 49.11C236.869 47.3023 236.869 45.2877 236.15 43.48C235.951 43.142 235.668 42.8617 235.327 42.6669C234.987 42.4721 234.602 42.3697 234.21 42.3697C233.818 42.3697 233.432 42.4721 233.092 42.6669C232.752 42.8617 232.468 43.142 232.27 43.48Z" fill="#262424"/>
<path d="M245.54 41.67L247.18 47.67C247.38 48.44 247.54 49.23 247.57 49.37C247.65 48.99 247.84 48.11 247.93 47.78L249.64 41.63H251.23L252.04 50.88H251L250.46 44.1V43.49C250.46 43.17 250.46 42.83 250.39 42.49L250 44L248.06 50.9H247.12L244.82 42.53C244.82 43.1 244.82 43.81 244.74 44.32L244.18 50.9H243.18L244.03 41.65L245.54 41.67Z" fill="#262424"/>
<path d="M262.43 50.92V42.54H258.76V50.92H257.66V41.67H263.53V50.92H262.43Z" fill="#262424"/>
<path d="M274.649 50.92L273.769 48.07H270.319L269.429 50.92H268.319L271.399 41.67H272.839L275.899 50.92H274.649ZM272.079 42.64L270.619 47.17H273.489L272.079 42.64Z" fill="#262424"/>
<path d="M285.67 50.92V46.44H281.79V50.92H280.68V41.67H281.79V45.54H285.67V41.67H286.77V50.92H285.67Z" fill="#262424"/>
<path d="M297.999 50.92V44.5C297.999 44.21 297.999 43.25 298.069 42.74C297.984 43.0861 297.859 43.4215 297.699 43.74L293.819 50.95H292.699V41.7H293.799V48.24C293.799 48.49 293.799 49.17 293.699 49.71C293.845 49.2697 294.026 48.8417 294.239 48.43L297.809 41.7H299.129V50.95L297.999 50.92Z" fill="#262424"/>
<path d="M309.69 50.92V46.74H308.25C308.083 46.7285 307.915 46.7509 307.757 46.8059C307.599 46.8609 307.453 46.9473 307.33 47.06C307.093 47.3471 306.938 47.6924 306.88 48.06L306.64 49.27C306.599 49.6858 306.462 50.0865 306.24 50.44C306.098 50.5935 305.926 50.7168 305.735 50.8027C305.545 50.8886 305.339 50.9353 305.13 50.94L304.38 51.02L304.18 50.25L304.45 50.17L305 50C305.2 49.89 305.3 49.77 305.43 49.34L305.83 47.83C305.904 47.4639 306.065 47.121 306.3 46.83C306.524 46.5881 306.817 46.4207 307.14 46.35C306.717 46.3057 306.314 46.1427 305.98 45.88C305.739 45.6825 305.546 45.4335 305.414 45.1514C305.283 44.8693 305.216 44.5612 305.22 44.25C305.217 43.8793 305.298 43.5127 305.455 43.1771C305.613 42.8414 305.843 42.5452 306.13 42.31C306.82 41.8539 307.647 41.6524 308.47 41.74H310.8V50.99L309.69 50.92ZM308.43 42.54C307.982 42.5261 307.538 42.6259 307.14 42.83C306.89 42.9746 306.686 43.186 306.55 43.4404C306.414 43.6948 306.351 43.9821 306.37 44.27C306.364 44.5166 306.419 44.7608 306.531 44.9807C306.643 45.2006 306.807 45.3893 307.01 45.53C307.463 45.805 307.992 45.9277 308.52 45.88H309.67V42.54H308.43Z" fill="#262424"/>
<defs>
<linearGradient id="paint0_linear" x1="4.45996" y1="28.09" x2="87.1199" y2="28.09" gradientUnits="userSpaceOnUse">
<stop stop-color="#CC2128"/>
<stop offset="0.5" stop-color="#D35B61"/>
<stop offset="1" stop-color="#A32330"/>
</linearGradient>
<linearGradient id="paint1_linear" x1="0.889648" y1="37.9" x2="83.5497" y2="37.9" gradientUnits="userSpaceOnUse">
<stop stop-color="#D0D1D3"/>
<stop offset="0.44" stop-color="#F1F1F2"/>
<stop offset="1" stop-color="#D0D1D3"/>
</linearGradient>
</defs>
</svg>
