<svg width="102" height="13" viewBox="0 0 102 13" fill="none" xmlns="http://www.w3.org/2000/svg">
<path d="M101.265 7.26517C101.412 7.11872 101.412 6.88129 101.265 6.73484L98.8787 4.34835C98.7322 4.20191 98.4948 4.20191 98.3483 4.34835C98.2019 4.4948 98.2019 4.73224 98.3483 4.87868L100.47 7L98.3483 9.12132C98.2019 9.26777 98.2019 9.50521 98.3483 9.65165C98.4948 9.7981 98.7322 9.7981 98.8787 9.65165L101.265 7.26517ZM52 7.375L101 7.375L101 6.625L52 6.625L52 7.375Z" fill="black" fill-opacity="0.1"/>
<path d="M0.734835 6.73483C0.588388 6.88128 0.588388 7.11872 0.734835 7.26517L3.12132 9.65165C3.26777 9.7981 3.5052 9.7981 3.65165 9.65165C3.7981 9.5052 3.7981 9.26777 3.65165 9.12132L1.53033 7L3.65165 4.87868C3.7981 4.73223 3.7981 4.4948 3.65165 4.34835C3.5052 4.2019 3.26777 4.2019 3.12132 4.34835L0.734835 6.73483ZM52 6.625L1 6.625V7.375L52 7.375V6.625Z" fill="black" fill-opacity="0.1"/>
<path d="M47.25 1.8C47.75 1.6 48.65 1.7 48.95 2.3C49.15 2.8 49.35 3.5 49.35 3.4C49.35 3 49.35 2.2 49.45 1.8C49.55 1.5 49.75 1.2 50.15 1.1C50.45 1 50.75 1 51.05 1C51.35 1.1 51.65 1.3 51.85 1.5C52.25 2.1 52.25 3.4 52.25 3.3C52.35 3 52.35 2.1 52.55 1.7C52.65 1.5 53.05 1.3 53.25 1.2C53.55 1.1 53.95 1.1 54.25 1.2C54.45 1.2 54.85 1.5 54.95 1.7C55.15 2 55.25 3 55.35 3.4C55.35 3.5 55.45 3 55.65 2.7C56.05 2.1 57.45 1.9 57.55 3.3C57.55 4 57.55 3.9 57.55 4.4C57.55 4.9 57.55 5.2 57.55 5.6C57.55 6 57.45 6.9 57.35 7.3C57.25 7.6 56.95 8.3 56.65 8.7C56.65 8.7 55.55 9.9 55.45 10.5C55.35 11.1 55.35 11.1 55.35 11.5C55.35 11.9 55.45 12.4 55.45 12.4C55.45 12.4 54.65 12.5 54.25 12.4C53.85 12.3 53.35 11.6 53.25 11.3C53.05 11 52.75 11 52.55 11.3C52.35 11.7 51.85 12.4 51.55 12.4C50.85 12.5 49.45 12.4 48.45 12.4C48.45 12.4 48.65 11.4 48.25 11C47.95 10.7 47.45 10.2 47.15 9.9L46.35 9C46.05 8.6 45.35 8.1 45.15 7C44.95 6.1 44.95 5.6 45.15 5.2C45.35 4.8 45.85 4.6 46.05 4.6C46.25 4.6 46.75 4.6 46.95 4.7C47.15 4.8 47.25 4.9 47.45 5.1C47.65 5.4 47.75 5.6 47.65 5.2C47.55 4.9 47.35 4.6 47.25 4.2C47.15 3.8 46.85 3.3 46.85 2.7C46.35 2.7 46.45 2.1 47.25 1.8Z" fill="white"/>
<path d="M47.25 1.8C47.75 1.6 48.65 1.7 48.95 2.3C49.15 2.8 49.35 3.5 49.35 3.4C49.35 3 49.35 2.2 49.45 1.8C49.55 1.5 49.75 1.2 50.15 1.1C50.45 1 50.75 1 51.05 1C51.35 1.1 51.65 1.3 51.85 1.5C52.25 2.1 52.25 3.4 52.25 3.3C52.35 3 52.35 2.1 52.55 1.7C52.65 1.5 53.05 1.3 53.25 1.2C53.55 1.1 53.95 1.1 54.25 1.2C54.45 1.2 54.85 1.5 54.95 1.7C55.15 2 55.25 3 55.35 3.4C55.35 3.5 55.45 3 55.65 2.7C56.05 2.1 57.45 1.9 57.55 3.3C57.55 4 57.55 3.9 57.55 4.4C57.55 4.9 57.55 5.2 57.55 5.6C57.55 6 57.45 6.9 57.35 7.3C57.25 7.6 56.95 8.3 56.65 8.7C56.65 8.7 55.55 9.9 55.45 10.5C55.35 11.1 55.35 11.1 55.35 11.5C55.35 11.9 55.45 12.4 55.45 12.4C55.45 12.4 54.65 12.5 54.25 12.4C53.85 12.3 53.35 11.6 53.25 11.3C53.05 11 52.75 11 52.55 11.3C52.35 11.7 51.85 12.4 51.55 12.4C50.85 12.5 49.45 12.4 48.45 12.4C48.45 12.4 48.65 11.4 48.25 11C47.95 10.7 47.45 10.2 47.15 9.9L46.35 9C46.05 8.6 45.35 8.1 45.15 7C44.95 6.1 44.95 5.6 45.15 5.2C45.35 4.8 45.85 4.6 46.05 4.6C46.25 4.6 46.75 4.6 46.95 4.7C47.15 4.8 47.25 4.9 47.45 5.1C47.65 5.4 47.75 5.6 47.65 5.2C47.55 4.9 47.35 4.6 47.25 4.2C47.15 3.8 46.85 3.3 46.85 2.7C46.35 2.7 46.45 2.1 47.25 1.8Z" stroke="#D9D9D9" stroke-width="0.75" stroke-linejoin="round"/>
<path d="M54.25 9.49998V6.09998" stroke="#D9D9D9" stroke-width="0.75" stroke-linecap="round"/>
<path d="M52.2504 9.49998L52.1504 6.09998" stroke="#D9D9D9" stroke-width="0.75" stroke-linecap="round"/>
<path d="M50.25 6.09998V9.49998" stroke="#D9D9D9" stroke-width="0.75" stroke-linecap="round"/>
</svg>
