<svg width="16" height="16" viewBox="0 0 16 16" fill="none" xmlns="http://www.w3.org/2000/svg">
<path d="M12.1641 10.5838C11.6413 10.0678 10.9888 10.0678 10.4694 10.5838C10.0732 10.9767 9.67697 11.3696 9.28743 11.7691C9.18089 11.879 9.09099 11.9023 8.96114 11.829C8.70477 11.6892 8.43176 11.576 8.18538 11.4228C7.03672 10.7004 6.07451 9.77144 5.22218 8.726C4.79934 8.2066 4.42311 7.65059 4.16008 7.02465C4.10681 6.89813 4.1168 6.8149 4.22001 6.71168C4.61622 6.3288 5.00243 5.93592 5.39198 5.54305C5.93468 4.99702 5.93468 4.35777 5.38865 3.80841C5.07901 3.49544 4.76937 3.18913 4.45973 2.87616C4.14011 2.55654 3.82381 2.23358 3.50085 1.91728C2.97813 1.40788 2.32556 1.40788 1.80617 1.92061C1.40663 2.31349 1.02375 2.71635 0.617554 3.10257C0.241327 3.45882 0.0515485 3.89497 0.0115952 4.40438C-0.0516642 5.23341 0.151432 6.01583 0.437764 6.77827C1.02375 8.35643 1.91604 9.75813 2.99811 11.0433C4.45973 12.7813 6.20436 14.1563 8.24531 15.1485C9.16424 15.5946 10.1165 15.9376 11.1519 15.9942C11.8644 16.0341 12.4837 15.8543 12.9798 15.2983C13.3194 14.9188 13.7023 14.5725 14.0619 14.2096C14.5946 13.6702 14.5979 13.0177 14.0685 12.4849C13.4359 11.849 12.8 11.2164 12.1641 10.5838Z" fill="#BCBEC0"/>
<path d="M11.5281 7.93076L12.7566 7.721C12.5635 6.59232 12.0308 5.57018 11.2218 4.7578C10.3661 3.90213 9.28402 3.36276 8.09208 3.19629L7.91895 4.43151C8.8412 4.56136 9.68022 4.97754 10.3428 5.6401C10.9687 6.26604 11.3782 7.05845 11.5281 7.93076Z" fill="#BCBEC0"/>
<path d="M13.4491 2.59031C12.0308 1.17196 10.2362 0.276344 8.25516 0L8.08203 1.23522C9.79337 1.47494 11.3449 2.25071 12.5701 3.47261C13.7321 4.63459 14.4945 6.10287 14.7709 7.71765L15.9995 7.5079C15.6765 5.63675 14.7942 3.93873 13.4491 2.59031Z" fill="#BCBEC0"/>
</svg>
