<svg width="96" height="96" viewBox="0 0 96 96" fill="none" xmlns="http://www.w3.org/2000/svg">
<path d="M91.5 48C91.5 72.0244 72.0244 91.5 48 91.5C23.9756 91.5 4.5 72.0244 4.5 48C4.5 23.9756 23.9756 4.5 48 4.5C72.0244 4.5 91.5 23.9756 91.5 48Z" stroke="#FFD648" stroke-width="5"/>
<path d="M44.9518 61C44.2214 61 43.4901 60.7418 42.933 60.2252L32.8364 50.8707C31.7212 49.8374 31.7212 48.1624 32.8364 47.1291C33.9517 46.0958 35.7596 46.0958 36.8749 47.1291L44.9518 54.6124L63.1252 37.7749C64.2404 36.7419 66.0488 36.7415 67.1633 37.7749C68.2789 38.8082 68.2789 40.4836 67.1633 41.5165L46.971 60.2252C46.4134 60.7415 45.6825 61 44.9518 61Z" fill="#FFD648"/>
</svg>
